<?xml version="1.0"?>
<!-- Created by MetaPost 1.504 on 2014.07.04:1435 -->
<svg version="1.1" xmlns="http://www.w3.org/2000/svg" xmlns:xlink="http://www.w3.org/1999/xlink" width="85.53937" height="85.53937" viewBox="0 0 85.53937 85.53937">
<!-- Original BoundingBox: -42.76968 -42.76968 42.76968 42.76968 -->
  <defs>
    <g transform="scale(0.00995,0.00995)" id="GLYPHcmbx10_97">
      <path style="fill-rule: evenodd;" d="M374 -77C374 -46,374 0,478 0L526 0C546 0,558 0,558 -24C558 -47,545 -47,532 -47C471 -48,471 -61,471 -84L471 -299C471 -388,400 -453,251 -453C194 -453,72 -449,72 -361C72 -317,107 -298,134 -298C165 -298,197 -319,197 -361C197 -391,178 -408,175 -410C203 -416,235 -417,247 -417C322 -417,357 -375,357 -299L357 -265C286 -262,32 -253,32 -108C32 -12,156 6,225 6C305 6,352 -35,374 -77M357 -234L357 -139C357 -43,265 -30,240 -30C189 -30,149 -65,149 -109C149 -217,307 -231,357 -234"></path>
    </g>
    <g transform="scale(0.00995,0.00995)" id="GLYPHcmbx10_100">
      <path style="fill-rule: evenodd;" d="M418 -43L418 6L601 0L601 -47C539 -47,532 -47,532 -86L532 -694L355 -686L355 -639C417 -639,424 -639,424 -600L424 -405C374 -444,322 -450,289 -450C143 -450,38 -362,38 -221C38 -89,130 6,278 6C339 6,387 -18,418 -43M418 -353L418 -103C405 -85,364 -30,288 -30C166 -30,166 -151,166 -221C166 -269,166 -323,192 -362C221 -404,268 -414,299 -414C356 -414,396 -382,418 -353"></path>
    </g>
    <g transform="scale(0.00995,0.00995)" id="GLYPHcmbx10_101">
      <path style="fill-rule: evenodd;" d="M462 -218C484 -218,494 -218,494 -245C494 -276,488 -349,438 -399C401 -435,348 -453,279 -453C119 -453,32 -350,32 -225C32 -91,132 6,293 6C451 6,494 -100,494 -117C494 -135,475 -135,470 -135C453 -135,451 -130,445 -114C424 -66,367 -34,302 -34C161 -34,160 -167,160 -218M160 -251C162 -290,163 -332,184 -365C210 -405,250 -417,279 -417C396 -417,398 -286,399 -251"></path>
    </g>
    <g transform="scale(0.00995,0.00995)" id="GLYPHcmbx10_110">
      <path style="fill-rule: evenodd;" d="M114 -356L114 -47L45 -47L45 0L171 0L73 -1L133 -3L171 -3L210 -3L269 -1L297 0L297 -47L228 -47L228 -256C228 -365,314 -414,377 -414C411 -414,432 -393,432 -317L432 -47L363 -47L363 0L489 0L391 -1L451 -3L489 -3L528 -3L587 -1L615 0L615 -47L546 -47L546 -306C546 -411,492 -450,392 -450C296 -450,243 -393,217 -342L217 -450L45 -442L45 -395C107 -395,114 -395,114 -356"></path>
    </g>
    <g transform="scale(0.00995,0.00995)" id="GLYPHcmbx10_115">
      <path style="fill-rule: evenodd;" d="M211 -294C174 -301,109 -312,109 -359C109 -421,202 -421,221 -421C296 -421,334 -392,339 -337C340 -322,341 -317,362 -317C386 -317,386 -322,386 -345L386 -425C386 -444,386 -453,368 -453C364 -453,362 -453,323 -434C297 -447,262 -453,222 -453C192 -453,38 -453,38 -322C38 -282,58 -255,78 -238C118 -203,156 -197,233 -183C269 -177,344 -164,344 -105C344 -30,252 -30,230 -30C124 -30,98 -103,86 -146C81 -160,76 -160,62 -160C38 -160,38 -154,38 -131L38 -22C38 -3,38 6,56 6C63 6,65 6,86 -9C87 -9,109 -24,112 -26C158 6,210 6,230 6C261 6,415 6,415 -140C415 -183,395 -218,360 -246C321 -275,289 -281,211 -294"></path>
    </g>
    <g transform="scale(0.00995,0.00995)" id="GLYPHcmbx10_116">
      <path style="fill-rule: evenodd;" d="M103 -397L103 -123C103 -16,190 6,261 6C337 6,382 -51,382 -124L382 -177L335 -177L335 -126C335 -58,303 -34,275 -34C217 -34,217 -98,217 -121L217 -397L363 -397L363 -444L217 -444L217 -635L170 -635C169 -535,120 -436,21 -433L21 -397"></path>
    </g>
    <g transform="scale(0.00995,0.00995)" id="GLYPHcmbx10_118">
      <path style="fill-rule: evenodd;" d="M506 -376C512 -390,516 -397,580 -397L580 -444L501 -444L555 -442L526 -441L501 -441L476 -441L431 -443L410 -444L410 -397C429 -397,458 -394,458 -386C458 -385,457 -383,453 -374L337 -124L210 -397L264 -397L264 -444L140 -444L231 -442L141 -441L140 -441L112 -441L67 -443L26 -444L26 -397L90 -397L265 -21C277 4,290 4,303 4C320 4,330 1,340 -20"></path>
    </g>
  </defs>
  <path d="M0.25 42.76968C0.25 66.25266,19.28671 85.28937,42.76968 85.28937C66.25266 85.28937,85.28937 66.25266,85.28937 42.76968C85.28937 24.57219,55.1683 17.97244,42.76968 42.76968C30.37106 67.56693,0.25 60.96718,0.25 42.76968Z" style="fill: rgb(0%,0%,0%);stroke: none;"></path>
  <path d="M0.25 42.76968C0.25 66.25266,19.28671 85.28937,42.76968 85.28937C66.25266 85.28937,85.28937 66.25266,85.28937 42.76968C85.28937 19.28671,66.25266 0.25,42.76968 0.25C19.28671 0.25,0.25 19.28671,0.25 42.76968Z" style="stroke:rgb(0%,0%,0%); stroke-width: 0.5;stroke-linecap: round;stroke-linejoin: round;stroke-miterlimit: 10;fill: none;"></path>
  <g transform="translate(10.53024 46.22894)" style="fill: rgb(0%,0%,0%);">
    <use xlink:href="#GLYPHcmbx10_100"></use>
    <use xlink:href="#GLYPHcmbx10_97" x="6.38895"></use>
    <use xlink:href="#GLYPHcmbx10_116" x="11.97926"></use>
    <use xlink:href="#GLYPHcmbx10_97" x="16.45154"></use>
  </g>
  <g transform="translate(48.40347 45.93243)" style="fill: rgb(100%,100%,100%);">
    <use xlink:href="#GLYPHcmbx10_101"></use>
    <use xlink:href="#GLYPHcmbx10_118" x="5.27089"></use>
  </g>
  <g transform="translate(59.38307 45.93243)" style="fill: rgb(100%,100%,100%);">
    <use xlink:href="#GLYPHcmbx10_101"></use>
    <use xlink:href="#GLYPHcmbx10_110" x="5.27089"></use>
  </g>
  <g transform="translate(70.68097 45.93243)" style="fill: rgb(100%,100%,100%);">
    <use xlink:href="#GLYPHcmbx10_116"></use>
    <use xlink:href="#GLYPHcmbx10_115" x="4.47226"></use>
  </g>
</svg>
